#!OML:ASF F:\VICON\USERDATA\INSTALL\rory3\rory3.ASF
:FULLY-SPECIFIED
:DEGREES
73
root 0.40322283470705966 17.829010650929987 45.18156634944544 -2.4881668578068705 -1.50597503012659 0.7205528436041919
lfemur 6.566060108406679 -3.5862106856802463 -25.357870690091197
ltibia 21.3621431962117
lfoot -10.086597255766755 4.178536634632978
ltoes -12.958223283969497
rfemur -30.16031189549272 1.243405134675076 18.83005886862892
rtibia 54.32286057363804
rfoot -10.621766534893766 -5.2563445038669006
rtoes 3.5949707757855753
lowerback 9.764591526047766 -0.7718485499664837 -2.6930544968610217
upperback 0.39822140379837806 -1.3739577325952261 1.2366587931051198
thorax -4.972931204336205 -0.5946543208244283 2.9071957549152656
lowerneck -17.124755250487127 -2.5885766155068386 -2.3244802991163955
upperneck 21.703668207032848 -3.2825503046122986 1.3001082601960565
head 9.797163487815462 -1.6004325582236938 0.5104787619152449
lclavicle -2.416631778002827e-15 -1.6217123977943509e-16
lhumerus -21.86791957733588 -1.5361941932373429 82.72416761150029
lradius 29.359939146732366
lwrist 7.87938689643369
lhand -27.59877887383954 21.96757545579332
lfingers 7.1250199999999975
lthumb -0.99841877053564 51.965851103530404
rclavicle -2.416631778002827e-15 -1.6217123977943509e-16
rhumerus -31.32634757554539 -20.300314718333464 -81.63913657774152
rradius 23.068502660749708
rwrist 1.4420158679975712
rhand -16.217744823452392 20.800734356897095
rfingers 7.1250199999999975
rthumb 9.990600647370803 -8.36667890221172
74
root 0.44437378907692826 17.89016649880133 45.83540624916673 -2.2609121689011067 -2.286807985957896 0.2576217962502745
lfemur 9.119433523087949 -3.5182328098603524 -24.97595443802053
ltibia 18.76800508847205
lfoot -6.0923444720550375 0.989677154128692
ltoes -14.215629696177496
rfemur -30.503497295403108 2.120319401149768 19.79561355490261
rtibia 48.831389075014286
rfoot -10.81044737188095 -4.785870270083149
rtoes 2.397557616236242
lowerback 9.529214247432733 -1.0741288481508109 -2.489658352064337
upperback 0.27547222184694786 -1.6850078820945167 1.5442948108417953
thorax -4.917264886586127 -0.7570119160378482 3.2177874676454685
lowerneck -17.048791834415255 -2.4961398112064126 -2.5434069495024296
upperneck 21.86834581737905 -3.1298384779777533 1.11634176196901
head 9.837803010583702 -1.546808272144084 0.5149803962762048
lclavicle -2.4334120968727856e-15 -1.7335850126006413e-16
lhumerus -21.718348179913377 -1.2896562055844198 82.21531426038628
lradius 30.170760738374042
lwrist 8.385767818209617
lhand -27.43962234726835 21.842195569537566
lfingers 7.1250199999999975
lthumb -0.8447059331584357 51.83237675535939
rclavicle -2.4334120968727856e-15 -1.7335850126006413e-16
rhumerus -31.99705255320644 -20.528032814216218 -81.06767492220212
rradius 23.59028040597351
rwrist 1.0478984802273779
rhand -16.133954576702518 20.909567362850925
rfingers 7.1250199999999975
rthumb 10.071499678399391 -8.270103430137555
75
root 0.4967376555975379 17.950613079905132 46.67601997381473 -2.029574434611576 -3.1043976206237676 -0.11483818100065335
lfemur 11.365362612267088 -3.551160104639246 -24.619916558582393
ltibia 16.72270672396407
lfoot -1.8732202860989702 -1.8080038971796442
ltoes -13.822428851326901
rfemur -30.129419722987684 3.087221945187043 20.68037207053085
rtibia 43.01852444631042
rfoot -10.65799242413524 -4.093043266747648
rtoes 1.2261736608230627
lowerback 9.306055498726401 -1.2610794665448477 -2.175936351740302
upperback 0.15198241546531877 -1.842018062061249 1.8170462735166
thorax -4.862772612582939 -0.8448767304100065 3.4328517973462787
lowerneck -16.936652806973324 -2.4218099535413984 -2.7824136189323934
upperneck 22.034081436788412 -3.0028545865154506 0.9776890228275108
head 9.880941916698413 -1.5032500847864223 0.5308812532837109
lclavicle -2.264582638218192e-15 -6.074265801346398e-17
lhumerus -21.709539151289313 -1.2488494151893907 81.74819658729524
lradius 30.68698042217622
lwrist 8.285607130268371
lhand -27.117217922635863 21.78484193680554
lfingers 7.1250199999999975
lthumb -0.5333183559285574 51.7672531747576
rclavicle -2.264582638218192e-15 -6.074265801346398e-17
rhumerus -32.570816654341414 -21.114136169461734 -80.27776245547953
rradius 24.063918866837444
rwrist 1.0774316679819647
rhand -16.12494938389984 21.024148905359137
rfingers 7.1250199999999975
rthumb 10.080231704563477 -8.170428075546319
76
root 0.5493887249377594 18.003141269548365 47.37805553609417 -1.8345594503210936 -3.857443553789481 -0.35910722849722987
lfemur 12.91824453978115 -3.78876557430102 -24.51502273955497
ltibia 15.340793252665076
lfoot 1.9026298094112137 -4.047945160159287
ltoes -12.056738624184812
rfemur -29.420281514888693 3.91562993053987 21.317924891654876
rtibia 36.907680041522234
rfoot -10.343332633705202 -3.394788518302765
rtoes 0.04555299492976417
lowerback 9.100705617473539 -1.4072780053638843 -1.8907900458151217
upperback 0.03393915424259636 -1.9585985318374304 2.0088628502723513
thorax -4.818579006431423 -0.9127043631883379 3.5301077418513125
lowerneck -16.815859120914393 -2.3724596422529465 -3.010323416386754
upperneck 22.168896811191264 -2.9144427016159025 0.8655957049244339
head 9.91351961473805 -1.4742409751488323 0.5448238815700571
lclavicle -2.2523141294223303e-15 -5.255653333357738e-17
lhumerus -21.87851715013222 -1.520522334688499 81.33139384459096
lradius 30.848103163925042
lwrist 7.661342258751517
lhand -26.76215160926646 21.67077549341477
lfingers 7.1250199999999975
lthumb -0.19037022187844 51.64894823736753
rclavicle -2.2523141294223303e-15 -5.255653333357738e-17
rhumerus -33.097151478833254 -22.1065162603037 -79.37808582596884
rradius 24.477536464064713
rwrist 1.405372171439085
rhand -16.170381618061402 21.120050219409876
rfingers 7.1250199999999975
rthumb 10.036435121090996 -8.092993041572655
77
root 0.5999246751219873 18.04601384339508 48.3854832556957 -1.6930792402480461 -4.350564037211326 -0.30925515399428405
lfemur 14.126032616061753 -4.21683251201527 -24.66207794031601
ltibia 15.132286946031119
lfoot 4.866784906406845 -5.555996404918326
ltoes -9.397974664211286
rfemur -28.419796823271206 4.48666525432354 21.744480415093385
rtibia 31.21223608136461
rfoot -9.803788708053139 -2.8819433833796952
rtoes -0.9449589029964618
lowerback 8.945020953270586 -1.5415902730959314 -1.6822439058579828
upperback -0.05501936884093067 -2.0816778545189805 2.119220806358166
thorax -4.774818676761229 -0.9831646975603482 3.6083578186444294
lowerneck -16.70499232592347 -2.342123908340182 -3.193155589355373
upperneck 22.257726452655834 -2.8565527745449524 0.7921897772322444
head 9.93166976693138 -1.4561518961182274 0.5585180522510537
lclavicle -2.0840871944760875e-15 5.965295074296015e-17
lhumerus -22.012337409101235 -1.9770186236225344 81.01290836199595
lradius 30.783282856354266
lwrist 6.835866802143493
lhand -26.445927361762045 21.54041143211328
lfingers 7.1250199999999975
lthumb 0.11508004100735802 51.51974080216395
rclavicle -2.0840871944760875e-15 5.965295074296015e-17
rhumerus -33.5200184368708 -23.329101223532497 -78.42088569590837
rradius 24.899450824994844
rwrist 1.966737927877939
rhand -16.21396912910629 21.241456104796537
rfingers 7.1250199999999975
rthumb 9.994426457249524 -7.9931601733487545
78
root 0.6342334266796777 18.07219079567017 48.9292544841596 -1.665861349021296 -4.607481207465493 -0.08268336016596578
lfemur 14.552696306417232 -4.79882929108568 -25.150784121104714
ltibia 15.88980749614249
lfoot 6.579196106013803 -6.660208944807528
ltoes -6.719245743660776
rfemur -27.5742976412232 4.715016230475869 21.864917738998397
rtibia 25.919533860505773
rfoot -9.33114824646865 -2.818540285951885
rtoes -1.6920675383417003
lowerback 8.839635542480222 -1.7137337859274009 -1.6655292184560169
upperback -0.10568114825686847 -2.287033120717922 2.1331476313004454
thorax -4.7363978064044225 -1.0918911531836213 3.6226322002954183
lowerneck -16.633600560826522 -2.338055338411377 -3.3453447495508324
upperneck 22.25799191348096 -2.8399951389047016 0.7338879447886792
head 9.916588476642117 -1.4530943914870296 0.5615828472234742
lclavicle -2.243496653875265e-15 -4.6677862938443164e-17
lhumerus -22.24486989323475 -2.626787802871344 80.77528451328783
lradius 30.423901590236795
lwrist 5.995764242596071
lhand -26.28767609287555 21.357042133365557
lfingers 7.1250199999999975
lthumb 0.2679701165903854 51.34192828904601
rclavicle -2.243496653875265e-15 -4.6677862938443164e-17
rhumerus -33.8873772018236 -24.784721535056466 -77.57756704894705
rradius 25.24966629957633
rwrist 2.597401616426236
rhand -16.261958721262367 21.35094700443632
rfingers 7.1250199999999975
rthumb 9.948153403048883 -7.9148686077482795
79
root 0.6499849293131632 18.082892785934227 49.21423963911224 -1.753379011633057 -4.650556200128257 0.30576448177364046
lfemur 14.49366413653975 -5.381675451704183 -25.750643997189087
ltibia 17.760682279946316
lfoot 7.22743512637227 -7.487478597980078
ltoes -4.433604065737366
rfemur -26.78645848317384 4.683633692475681 21.857852471450556
rtibia 21.65805132994598
rfoot -8.82681737682708 -3.120577642876568
rtoes -2.041379860665536
lowerback 8.801719496493122 -1.8774608902506715 -1.7563314633481013
upperback -0.10479007635498883 -2.5059467977015695 2.081044797300726
thorax -4.694351674169185 -1.2059718726475848 3.606710272842175
lowerneck -16.600993414686318 -2.3529683042114495 -3.4690991530815216
upperneck 22.17674455346375 -2.853092002375176 0.6987239116316821
head 9.87133827387919 -1.460505208605033 0.5596655640891807
lclavicle -2.442389978416433e-15 -1.7934556360887733e-16
lhumerus -22.473863805256645 -3.230311002799212 80.62846646817997
lradius 29.825703205797407
lwrist 5.356366612038831
lhand -26.25502979970644 21.242582002270822
lfingers 7.1250199999999975
lthumb 0.2995461702348785 51.23465481871134
rclavicle -2.442389978416433e-15 -1.7934556360887733e-16
rhumerus -34.11938099427928 -26.261023606256657 -76.90784013595686
rradius 25.534528872077946
rwrist 3.2287522350430335
rhand -16.297532792389404 21.48114496660083
rfingers 7.1250199999999975
rthumb 9.913839988340229 -7.817615957831087
